<svg id="svg" version="1.1" xmlns="http://www.w3.org/2000/svg" xmlns:xlink="http://www.w3.org/1999/xlink" width="400" height="364.3979057591623" viewBox="0, 0, 400,364.3979057591623"><g id="svgg"><path id="path0" d="M196.718 15.293 C 180.084 19.556,182.727 44.129,199.818 44.113 C 217.321 44.097,219.580 18.752,202.399 15.138 C 199.324 14.491,199.908 14.475,196.718 15.293 M103.051 26.271 C 92.418 28.942,88.488 42.268,95.993 50.203 C 102.077 56.636,111.248 56.676,117.216 50.295 C 126.918 39.923,116.829 22.811,103.051 26.271 M288.528 32.087 C 273.038 37.595,276.763 60.385,293.145 60.336 C 307.254 60.293,313.015 42.738,301.723 34.196 C 298.110 31.463,292.711 30.600,288.528 32.087 M26.618 64.550 C 16.511 66.332,11.473 78.298,17.194 86.935 C 24.343 97.729,41.346 94.190,43.569 81.445 C 45.329 71.356,36.714 62.770,26.618 64.550 M367.183 64.682 C 357.526 66.829,352.804 78.280,358.145 86.600 C 364.282 96.158,378.404 95.434,383.493 85.301 C 388.976 74.385,379.190 62.012,367.183 64.682 M187.444 130.105 C 180.739 163.734,175.195 191.423,175.125 191.636 C 175.018 191.962,224.182 191.984,224.507 191.658 C 224.552 191.614,223.351 185.433,221.840 177.922 C 220.329 170.411,218.877 163.118,218.613 161.714 C 218.349 160.310,217.471 155.880,216.661 151.869 C 215.851 147.858,214.995 143.592,214.758 142.388 C 214.522 141.185,214.118 139.134,213.860 137.830 C 213.374 135.365,210.253 119.735,209.929 118.140 C 209.827 117.639,209.007 113.537,208.106 109.025 C 207.205 104.512,206.366 100.328,206.242 99.727 C 206.118 99.125,205.776 97.402,205.483 95.898 C 205.189 94.394,204.605 91.522,204.184 89.517 C 203.764 87.511,203.168 84.558,202.860 82.954 C 202.295 80.004,201.831 77.678,200.755 72.388 C 200.429 70.788,200.044 69.363,199.899 69.220 C 199.754 69.077,194.149 96.475,187.444 130.105 M113.765 138.598 L 113.765 195.883 116.773 195.646 C 118.428 195.516,121.258 195.255,123.063 195.067 C 128.199 194.530,152.729 192.925,156.153 192.902 C 158.462 192.886,159.336 195.790,149.506 170.830 C 146.597 163.442,143.747 156.165,141.296 149.863 C 140.554 147.958,138.751 143.364,137.288 139.654 C 135.825 135.943,134.017 131.349,133.272 129.444 C 132.526 127.539,131.017 123.683,129.918 120.875 C 128.819 118.067,126.884 113.145,125.617 109.936 C 124.350 106.727,122.708 102.543,121.968 100.638 C 121.228 98.733,119.400 94.057,117.906 90.246 C 116.412 86.436,115.013 82.867,114.798 82.315 C 114.582 81.764,114.261 81.313,114.085 81.313 C 113.902 81.313,113.765 105.924,113.765 138.598 M285.596 84.974 C 285.282 85.663,277.053 105.910,274.042 113.400 C 273.115 115.706,272.200 117.922,272.009 118.323 C 271.818 118.724,270.939 120.857,270.057 123.063 C 267.199 130.206,265.072 135.443,264.725 136.190 C 264.539 136.591,263.472 139.216,262.355 142.024 C 261.238 144.831,260.168 147.457,259.976 147.858 C 259.785 148.259,258.905 150.392,258.022 152.598 C 254.299 161.893,250.810 170.514,250.496 171.194 C 250.311 171.595,249.432 173.728,248.544 175.934 C 244.770 185.309,243.508 188.397,243.012 189.474 C 242.723 190.102,242.444 191.004,242.392 191.479 L 242.297 192.343 248.678 192.605 C 258.813 193.022,268.264 193.544,277.240 194.184 C 281.818 194.510,285.634 194.707,285.719 194.622 C 285.803 194.537,285.831 169.787,285.779 139.622 C 285.728 109.457,285.645 84.866,285.596 84.974 M43.174 115.594 C 43.286 116.092,46.596 135.861,50.529 159.526 C 54.462 183.191,57.748 202.622,57.831 202.707 C 57.990 202.870,62.005 202.375,67.821 201.476 C 69.727 201.181,73.090 200.696,75.296 200.398 C 77.502 200.101,80.456 199.689,81.860 199.484 C 85.267 198.985,90.829 198.290,93.528 198.026 C 96.107 197.774,96.108 197.763,93.934 194.416 C 93.064 193.075,90.014 188.286,87.157 183.774 C 84.300 179.262,81.590 174.995,81.134 174.294 C 79.879 172.360,78.082 169.534,64.906 148.769 C 52.915 129.873,50.293 125.747,48.681 123.245 C 48.228 122.543,47.077 120.738,46.123 119.234 C 45.169 117.730,44.069 116.092,43.679 115.594 L 42.970 114.688 43.174 115.594 M353.760 118.969 C 352.494 121.020,347.119 129.508,341.816 137.830 C 330.307 155.890,332.151 152.993,321.052 170.465 C 316.084 178.286,311.490 185.506,310.843 186.509 C 304.165 196.867,304.149 196.901,305.987 196.901 C 306.622 196.901,308.140 197.062,309.359 197.258 C 310.579 197.455,314.613 198.035,318.323 198.548 C 322.033 199.061,326.873 199.811,329.079 200.215 C 331.285 200.619,334.321 201.175,335.825 201.450 C 337.329 201.725,339.267 202.111,340.133 202.309 C 341.572 202.637,341.733 202.601,342.034 201.881 C 342.297 201.252,348.466 164.844,350.601 151.322 C 351.034 148.578,353.389 134.360,355.010 124.704 C 355.330 122.799,355.820 120.033,356.100 118.557 C 356.952 114.066,356.766 114.099,353.760 118.969 M189.426 206.605 C 158.462 207.398,147.476 207.905,126.892 209.493 C 115.211 210.394,91.999 212.857,84.047 214.040 C 82.644 214.248,78.624 214.826,75.114 215.324 C 68.241 216.297,61.943 217.256,60.615 217.530 C 58.180 218.033,61.305 222.835,69.497 231.176 C 75.361 237.147,79.267 241.673,82.431 246.163 L 83.003 246.974 88.812 246.009 C 103.954 243.493,120.371 242.173,156.244 240.588 C 170.573 239.955,229.138 239.954,243.391 240.586 C 278.455 242.142,296.297 243.544,309.754 245.799 C 317.614 247.116,316.884 247.173,318.139 245.153 C 320.269 241.726,323.607 237.852,329.239 232.270 C 335.726 225.841,337.731 223.446,338.968 220.651 C 340.345 217.538,340.434 217.643,335.825 216.969 C 334.521 216.778,329.435 216.031,324.521 215.310 C 300.213 211.739,277.065 209.484,247.949 207.851 C 234.126 207.076,199.677 206.342,189.426 206.605 M172.826 254.882 C 152.699 255.290,128.922 256.384,117.593 257.422 C 104.044 258.664,99.789 259.129,95.303 259.854 L 91.609 260.452 93.008 263.044 C 95.549 267.755,96.031 271.839,94.937 279.386 C 94.122 285.004,94.122 284.974,94.986 284.877 C 95.387 284.832,97.767 284.539,100.273 284.225 C 102.780 283.912,107.046 283.415,109.754 283.119 C 112.461 282.824,115.169 282.502,115.770 282.403 C 117.143 282.177,127.768 281.261,137.101 280.564 C 177.133 277.575,235.862 278.043,276.208 281.675 C 285.124 282.477,303.745 284.629,304.923 284.993 C 305.742 285.246,305.736 284.908,304.831 279.672 C 303.481 271.854,304.313 266.190,307.473 261.693 C 308.387 260.392,308.547 260.485,304.275 259.830 C 279.488 256.030,222.338 253.879,172.826 254.882 M174.658 293.410 C 166.544 293.635,151.488 294.290,146.764 294.623 C 121.787 296.387,114.734 297.086,96.809 299.572 C 86.720 300.971,86.938 300.879,85.080 304.546 C 83.120 308.415,82.152 311.664,81.082 317.958 C 80.399 321.973,80.073 341.629,80.678 342.238 C 81.688 343.254,118.110 346.848,139.654 348.059 C 162.148 349.323,168.312 349.467,199.818 349.467 C 231.323 349.467,237.487 349.323,259.982 348.059 C 281.331 346.859,318.324 343.238,319.311 342.251 C 319.911 341.651,319.482 323.879,318.747 318.870 C 317.175 308.164,314.152 301.273,310.766 300.676 C 280.020 295.259,221.238 292.121,174.658 293.410 " stroke="none" fill="#e3e3e3" fill-rule="evenodd"></path><path id="path1" d="M192.799 0.457 C 191.445 0.654,190.337 0.943,190.337 1.100 C 190.337 1.257,189.517 1.583,188.514 1.823 C 187.511 2.064,186.691 2.395,186.691 2.560 C 186.691 2.724,186.199 2.967,185.597 3.099 C 184.995 3.232,184.503 3.496,184.503 3.687 C 184.503 3.878,184.216 4.143,183.865 4.275 C 183.514 4.408,183.040 4.690,182.812 4.902 C 182.583 5.114,181.938 5.615,181.377 6.016 C 179.879 7.089,175.752 11.402,175.752 11.895 C 175.752 12.128,175.506 12.414,175.205 12.529 C 174.904 12.645,174.658 12.990,174.658 13.298 C 174.658 13.605,174.535 13.857,174.385 13.859 C 174.015 13.863,173.200 15.666,173.200 16.481 C 173.200 16.842,173.043 17.138,172.852 17.138 C 172.660 17.138,172.396 17.712,172.264 18.414 C 172.132 19.116,171.889 19.690,171.723 19.690 C 171.557 19.690,171.306 20.469,171.166 21.422 C 171.026 22.375,170.750 23.258,170.554 23.384 C 170.084 23.687,170.079 35.014,170.548 35.321 C 170.742 35.448,171.008 36.363,171.141 37.355 C 171.274 38.347,171.521 39.249,171.691 39.360 C 171.861 39.471,172.111 40.166,172.247 40.903 C 172.383 41.641,172.617 42.297,172.767 42.362 C 172.917 42.427,173.521 43.438,174.108 44.610 C 174.696 45.782,175.552 47.036,176.011 47.397 C 176.470 47.758,176.846 48.228,176.846 48.440 C 176.846 48.943,180.410 52.507,180.913 52.507 C 181.125 52.507,181.592 52.876,181.950 53.327 C 182.308 53.778,183.521 54.640,184.645 55.242 C 186.498 56.233,187.604 57.976,186.380 57.976 C 186.209 57.976,185.857 59.699,185.597 61.805 C 185.337 63.911,185.004 65.634,184.857 65.634 C 184.709 65.634,184.474 66.864,184.333 68.368 C 184.192 69.872,183.943 71.103,183.780 71.103 C 183.617 71.103,183.368 72.252,183.227 73.655 C 183.086 75.059,182.845 76.208,182.691 76.208 C 182.537 76.208,182.197 78.013,181.934 80.219 C 181.672 82.425,181.339 84.230,181.194 84.230 C 181.049 84.230,180.816 85.378,180.675 86.782 C 180.534 88.186,180.287 89.335,180.128 89.335 C 179.968 89.335,179.722 90.483,179.581 91.887 C 179.440 93.291,179.196 94.439,179.040 94.439 C 178.883 94.439,178.639 95.670,178.499 97.174 C 178.358 98.678,178.116 99.909,177.963 99.909 C 177.809 99.909,177.470 101.632,177.211 103.737 C 176.951 105.843,176.612 107.566,176.459 107.566 C 176.305 107.566,176.064 108.797,175.923 110.301 C 175.782 111.805,175.538 113.036,175.382 113.036 C 175.225 113.036,174.981 114.184,174.840 115.588 C 174.699 116.992,174.458 118.140,174.305 118.140 C 174.151 118.140,173.810 119.945,173.548 122.151 C 173.286 124.357,172.952 126.162,172.808 126.162 C 172.663 126.162,172.429 127.311,172.288 128.715 C 172.147 130.119,171.901 131.267,171.741 131.267 C 171.581 131.267,171.335 132.416,171.194 133.820 C 171.053 135.223,170.812 136.372,170.659 136.372 C 170.505 136.372,170.172 138.177,169.918 140.383 C 169.664 142.589,169.330 144.394,169.177 144.394 C 169.024 144.394,168.783 145.542,168.642 146.946 C 168.501 148.350,168.252 149.499,168.089 149.499 C 167.926 149.499,167.677 150.729,167.536 152.233 C 167.395 153.737,167.152 154.968,166.995 154.968 C 166.838 154.968,166.595 156.117,166.454 157.521 C 166.313 158.924,166.050 160.073,165.870 160.073 C 165.690 160.073,165.542 160.394,165.542 160.787 C 165.542 162.408,164.701 167.001,164.404 167.001 C 164.228 167.001,164.084 166.627,164.084 166.170 C 164.084 165.714,163.859 165.016,163.584 164.621 C 163.308 164.225,162.967 163.368,162.825 162.716 C 162.683 162.065,162.437 161.531,162.277 161.531 C 162.118 161.531,161.889 161.039,161.768 160.438 C 161.648 159.836,161.217 158.614,160.811 157.723 C 160.405 156.831,160.073 155.847,160.073 155.535 C 160.073 155.223,159.922 154.968,159.737 154.968 C 159.553 154.968,159.288 154.435,159.148 153.783 C 159.009 153.131,158.769 152.434,158.614 152.233 C 158.460 152.033,158.220 151.335,158.081 150.684 C 157.941 150.032,157.702 149.499,157.550 149.499 C 157.397 149.499,157.056 148.596,156.791 147.493 C 156.527 146.390,156.180 145.488,156.020 145.488 C 155.861 145.488,155.623 144.913,155.491 144.211 C 155.359 143.510,155.108 142.935,154.932 142.935 C 154.756 142.935,154.507 142.279,154.379 141.477 C 154.251 140.675,154.016 140.018,153.857 140.018 C 153.698 140.018,153.454 139.485,153.315 138.833 C 153.176 138.181,152.753 136.960,152.374 136.118 C 151.996 135.277,151.686 134.334,151.686 134.022 C 151.686 133.710,151.530 133.455,151.338 133.455 C 151.147 133.455,150.882 132.881,150.751 132.179 C 150.619 131.477,150.367 130.902,150.192 130.902 C 150.016 130.902,149.767 130.246,149.639 129.444 C 149.510 128.642,149.279 127.985,149.124 127.985 C 148.969 127.985,148.645 127.165,148.405 126.162 C 148.164 125.160,147.834 124.339,147.671 124.339 C 147.508 124.339,147.264 123.683,147.129 122.881 C 146.993 122.078,146.745 121.422,146.579 121.422 C 146.412 121.422,146.159 120.889,146.017 120.237 C 145.875 119.585,145.534 118.728,145.259 118.333 C 144.984 117.937,144.758 117.276,144.758 116.864 C 144.758 116.452,144.533 115.791,144.258 115.396 C 143.983 115.000,143.642 114.143,143.500 113.491 C 143.358 112.840,143.109 112.306,142.947 112.306 C 142.785 112.306,142.544 111.732,142.412 111.030 C 142.281 110.328,142.042 109.754,141.883 109.754 C 141.723 109.754,141.391 108.851,141.144 107.748 C 140.897 106.645,140.564 105.743,140.403 105.743 C 140.243 105.743,140.006 105.087,139.878 104.284 C 139.750 103.482,139.501 102.826,139.325 102.826 C 139.149 102.826,138.898 102.252,138.766 101.550 C 138.634 100.848,138.388 100.273,138.219 100.273 C 138.050 100.273,137.804 99.699,137.672 98.997 C 137.541 98.295,137.307 97.721,137.154 97.721 C 137.000 97.721,136.658 96.860,136.394 95.807 C 136.130 94.754,135.789 93.728,135.638 93.528 C 135.486 93.327,135.248 92.630,135.109 91.978 C 134.969 91.326,134.723 90.793,134.560 90.793 C 134.398 90.793,134.158 90.219,134.026 89.517 C 133.894 88.815,133.656 88.241,133.497 88.241 C 133.337 88.241,132.990 87.338,132.726 86.235 C 132.461 85.132,132.120 84.230,131.967 84.230 C 131.815 84.230,131.574 83.696,131.432 83.045 C 131.290 82.393,130.949 81.536,130.674 81.140 C 130.398 80.745,130.173 80.047,130.173 79.591 C 130.173 79.134,130.009 78.760,129.809 78.760 C 129.608 78.760,129.444 78.505,129.444 78.193 C 129.444 77.881,129.112 76.897,128.706 76.006 C 128.299 75.114,127.869 73.892,127.748 73.291 C 127.628 72.689,127.393 72.197,127.227 72.197 C 127.061 72.197,126.810 71.586,126.670 70.839 C 126.530 70.092,126.194 69.260,125.924 68.989 C 125.654 68.719,125.433 68.114,125.433 67.643 C 125.433 67.173,125.273 66.734,125.077 66.667 C 124.500 66.470,124.163 64.175,124.710 64.175 C 125.181 64.175,130.173 59.225,130.173 58.758 C 130.173 58.618,130.501 58.222,130.902 57.879 C 131.304 57.535,131.632 57.006,131.632 56.704 C 131.632 56.401,131.785 56.153,131.973 56.153 C 132.160 56.153,132.521 55.579,132.775 54.877 C 133.029 54.175,133.350 53.601,133.488 53.601 C 133.625 53.601,133.846 53.026,133.978 52.325 C 134.109 51.623,134.364 51.048,134.543 51.048 C 134.722 51.048,134.984 50.269,135.124 49.316 C 135.264 48.364,135.562 47.467,135.784 47.324 C 136.358 46.956,136.343 34.209,135.768 33.511 C 135.536 33.229,135.230 32.220,135.088 31.267 C 134.947 30.314,134.698 29.535,134.536 29.535 C 134.374 29.535,134.134 29.043,134.002 28.441 C 133.870 27.840,133.623 27.347,133.454 27.347 C 133.285 27.347,132.947 26.741,132.702 26.000 C 132.236 24.586,132.067 24.330,130.447 22.575 C 129.895 21.977,129.444 21.345,129.444 21.169 C 129.444 20.641,126.326 17.603,125.521 17.348 C 125.109 17.217,124.679 16.870,124.567 16.577 C 124.454 16.284,124.128 16.044,123.843 16.044 C 123.557 16.044,123.237 15.819,123.131 15.544 C 123.026 15.269,122.496 14.932,121.954 14.796 C 121.413 14.660,120.731 14.311,120.440 14.020 C 120.149 13.729,119.595 13.491,119.208 13.491 C 118.821 13.491,118.505 13.340,118.505 13.156 C 118.505 12.971,117.972 12.704,117.320 12.563 C 116.668 12.422,116.035 12.149,115.913 11.957 C 115.790 11.765,114.683 11.517,113.451 11.405 C 112.220 11.294,111.212 11.061,111.212 10.888 C 111.212 10.476,102.199 10.479,101.944 10.891 C 101.836 11.065,100.765 11.319,99.563 11.455 C 98.362 11.591,97.293 11.840,97.189 12.008 C 97.085 12.177,96.424 12.423,95.720 12.555 C 95.015 12.687,94.439 12.939,94.439 13.114 C 94.439 13.290,93.947 13.542,93.345 13.674 C 92.744 13.806,92.252 14.052,92.252 14.221 C 92.252 14.390,91.677 14.718,90.975 14.950 C 90.273 15.182,89.699 15.522,89.699 15.707 C 89.699 15.892,89.492 16.044,89.239 16.044 C 88.987 16.044,88.373 16.536,87.876 17.138 C 87.379 17.739,86.794 18.232,86.576 18.232 C 86.145 18.232,84.594 19.757,84.594 20.182 C 84.594 20.326,84.134 20.894,83.570 21.445 C 83.007 21.995,82.438 22.728,82.306 23.073 C 82.173 23.419,81.896 23.701,81.689 23.701 C 81.482 23.701,81.313 23.935,81.313 24.222 C 81.313 24.508,81.090 24.966,80.817 25.238 C 80.545 25.510,80.102 26.343,79.833 27.087 C 79.563 27.832,79.233 28.441,79.098 28.441 C 78.964 28.441,78.743 29.134,78.607 29.980 C 78.472 30.826,78.206 31.615,78.015 31.733 C 77.825 31.850,77.562 33.209,77.432 34.752 C 77.301 36.295,77.055 37.557,76.884 37.557 C 76.477 37.557,76.477 42.924,76.883 43.175 C 77.054 43.281,77.293 44.548,77.414 45.991 C 77.535 47.434,77.785 48.711,77.970 48.829 C 78.155 48.947,78.423 49.740,78.565 50.593 C 78.708 51.445,78.974 52.142,79.157 52.142 C 79.340 52.142,79.490 52.345,79.490 52.593 C 79.490 53.265,81.385 56.882,81.737 56.882 C 81.905 56.882,82.042 57.120,82.042 57.411 C 82.042 57.702,82.251 58.071,82.506 58.232 C 82.762 58.392,83.232 58.933,83.550 59.435 C 84.362 60.712,87.055 63.350,88.295 64.083 C 88.867 64.421,89.335 64.826,89.335 64.983 C 89.335 65.140,89.586 65.269,89.893 65.269 C 90.200 65.269,90.542 65.505,90.653 65.794 C 90.763 66.082,91.333 66.423,91.917 66.552 C 92.502 66.680,92.981 66.921,92.981 67.087 C 92.981 67.253,93.801 67.600,94.804 67.857 C 95.807 68.114,96.627 68.436,96.627 68.574 C 96.627 68.712,97.119 68.923,97.721 69.043 L 98.815 69.262 98.815 121.093 C 98.815 167.124,98.754 172.874,98.268 172.470 C 97.967 172.221,97.721 171.808,97.721 171.553 C 97.721 171.298,97.475 170.995,97.174 170.880 C 96.873 170.765,96.627 170.419,96.627 170.112 C 96.627 169.805,96.483 169.553,96.307 169.553 C 96.131 169.553,95.771 169.020,95.507 168.368 C 95.243 167.716,94.936 167.101,94.825 167.001 C 94.320 166.547,92.981 164.440,92.981 164.099 C 92.981 163.890,92.831 163.719,92.649 163.719 C 92.466 163.719,91.968 162.999,91.542 162.120 C 91.117 161.240,90.446 160.148,90.051 159.694 C 89.657 159.239,89.335 158.664,89.335 158.415 C 89.335 158.167,89.088 157.869,88.788 157.753 C 88.487 157.638,88.241 157.292,88.241 156.985 C 88.241 156.678,88.117 156.427,87.965 156.427 C 87.813 156.427,87.457 155.893,87.174 155.242 C 86.890 154.590,86.563 153.974,86.447 153.874 C 85.953 153.448,84.594 151.320,84.594 150.972 C 84.594 150.763,84.430 150.593,84.230 150.593 C 84.029 150.593,83.865 150.425,83.865 150.220 C 83.865 149.816,82.146 147.064,81.404 146.282 C 81.153 146.017,80.948 145.566,80.948 145.279 C 80.948 144.993,80.784 144.758,80.583 144.758 C 80.383 144.758,80.219 144.583,80.219 144.369 C 80.219 144.156,79.809 143.443,79.307 142.785 C 78.806 142.128,78.396 141.401,78.396 141.169 C 78.396 140.937,78.269 140.747,78.115 140.747 C 77.960 140.747,77.430 140.009,76.937 139.107 C 76.444 138.204,75.945 137.466,75.828 137.466 C 75.711 137.466,75.392 136.898,75.120 136.205 C 74.848 135.511,74.407 134.860,74.140 134.758 C 73.874 134.655,73.655 134.320,73.655 134.013 C 73.655 133.706,73.491 133.455,73.291 133.455 C 73.090 133.455,72.926 133.242,72.926 132.982 C 72.926 132.722,72.680 132.189,72.379 131.797 C 71.290 130.378,70.009 128.310,70.009 127.969 C 70.009 127.778,69.845 127.621,69.644 127.621 C 69.444 127.621,69.280 127.383,69.280 127.092 C 69.280 126.801,69.075 126.432,68.824 126.272 C 68.404 126.003,67.569 124.641,66.579 122.610 C 66.360 122.160,66.057 121.791,65.907 121.790 C 65.757 121.788,65.634 121.535,65.634 121.228 C 65.634 120.921,65.387 120.575,65.087 120.460 C 64.786 120.345,64.540 120.033,64.540 119.768 C 64.540 119.503,64.310 119.056,64.029 118.775 C 63.748 118.494,63.074 117.416,62.532 116.379 C 61.990 115.342,61.399 114.494,61.220 114.494 C 61.040 114.494,60.893 114.256,60.893 113.965 C 60.893 113.674,60.688 113.305,60.438 113.145 C 60.187 112.984,59.495 111.910,58.901 110.757 C 58.306 109.603,57.691 108.660,57.533 108.660 C 57.376 108.660,57.247 108.409,57.247 108.102 C 57.247 107.794,57.001 107.449,56.700 107.333 C 56.399 107.218,56.153 106.890,56.153 106.604 C 56.153 106.318,55.917 105.994,55.628 105.883 C 55.340 105.773,55.002 105.217,54.877 104.649 C 54.676 103.734,54.357 103.228,52.878 101.474 C 52.674 101.232,52.507 100.857,52.507 100.642 C 52.507 100.427,52.261 100.156,51.960 100.041 C 51.326 99.797,51.261 99.333,51.775 98.708 C 53.984 96.021,54.695 95.025,54.695 94.613 C 54.695 94.346,54.909 93.910,55.172 93.645 C 55.890 92.921,56.834 90.877,57.096 89.480 C 57.224 88.798,57.464 88.241,57.630 88.241 C 57.796 88.241,58.032 87.461,58.155 86.509 C 58.278 85.556,58.534 84.492,58.724 84.144 C 59.158 83.350,59.184 74.133,58.754 73.867 C 58.579 73.760,58.325 72.684,58.189 71.476 C 58.052 70.268,57.799 69.280,57.626 69.280 C 57.453 69.280,57.200 68.624,57.065 67.821 C 56.929 67.019,56.682 66.363,56.515 66.363 C 56.348 66.363,56.106 65.884,55.978 65.299 C 55.849 64.714,55.523 64.151,55.254 64.048 C 54.984 63.944,54.660 63.391,54.535 62.818 C 54.409 62.246,53.819 61.375,53.224 60.883 C 52.629 60.392,52.138 59.824,52.133 59.621 C 52.121 59.162,48.711 55.789,48.259 55.789 C 48.077 55.789,47.665 55.501,47.342 55.150 C 46.421 54.149,45.111 53.236,44.593 53.236 C 44.333 53.236,44.120 53.098,44.120 52.930 C 44.120 52.761,43.464 52.407,42.662 52.142 C 41.860 51.877,41.203 51.542,41.203 51.396 C 41.203 51.250,40.465 51.020,39.562 50.885 C 38.660 50.750,37.922 50.495,37.922 50.319 C 37.922 50.143,36.773 49.885,35.369 49.747 C 33.965 49.609,32.817 49.353,32.817 49.178 C 32.817 49.003,31.258 48.861,29.353 48.861 C 27.448 48.861,25.889 49.001,25.889 49.172 C 25.889 49.344,24.793 49.587,23.454 49.712 C 22.115 49.837,20.925 50.087,20.810 50.267 C 20.695 50.447,19.904 50.711,19.052 50.853 C 18.200 50.996,17.502 51.236,17.502 51.387 C 17.502 51.538,16.846 51.859,16.044 52.099 C 15.242 52.339,14.585 52.676,14.585 52.847 C 14.585 53.017,14.175 53.260,13.674 53.386 C 13.172 53.512,12.762 53.776,12.762 53.972 C 12.762 54.169,12.524 54.330,12.233 54.330 C 11.942 54.330,11.573 54.539,11.413 54.795 C 11.252 55.050,10.711 55.520,10.210 55.838 C 9.021 56.594,6.199 59.423,6.199 59.860 C 6.199 60.046,5.800 60.569,5.312 61.020 C 4.825 61.472,4.315 62.285,4.179 62.826 C 4.043 63.367,3.802 63.810,3.644 63.810 C 3.242 63.810,1.967 66.335,1.658 67.745 C 1.516 68.388,1.283 68.915,1.139 68.915 C 0.607 68.915,0.000 74.177,0.000 78.788 C -0.000 83.562,0.581 88.605,1.131 88.605 C 1.293 88.605,1.538 89.221,1.675 89.973 C 1.890 91.154,3.096 93.885,3.646 94.438 C 3.747 94.539,4.232 95.196,4.724 95.898 C 6.070 97.816,6.242 98.018,8.096 99.853 C 10.596 102.327,12.019 103.555,12.386 103.555 C 12.564 103.555,12.927 103.761,13.192 104.012 C 13.826 104.613,17.569 106.472,18.146 106.472 C 18.393 106.472,18.596 106.615,18.596 106.790 C 18.596 106.965,19.417 107.216,20.419 107.349 C 21.422 107.482,22.242 107.750,22.242 107.943 C 22.242 108.137,23.051 108.295,24.040 108.295 C 26.515 108.295,26.865 108.763,27.175 112.481 C 27.317 114.190,27.564 115.588,27.722 115.588 C 27.881 115.588,28.127 116.983,28.269 118.687 C 28.411 120.392,28.653 121.787,28.806 121.787 C 28.959 121.787,29.200 123.181,29.342 124.886 C 29.484 126.591,29.723 127.985,29.873 127.985 C 30.023 127.985,30.363 130.119,30.629 132.726 C 30.895 135.333,31.230 137.466,31.374 137.466 C 31.519 137.466,31.753 138.861,31.895 140.565 C 32.037 142.270,32.285 143.665,32.446 143.665 C 32.607 143.665,32.856 145.141,32.999 146.946 C 33.142 148.751,33.381 150.228,33.531 150.228 C 33.680 150.228,34.009 152.198,34.261 154.606 C 34.513 157.014,34.848 159.064,35.005 159.162 C 35.163 159.259,35.408 160.817,35.551 162.623 C 35.694 164.429,35.943 165.907,36.104 165.907 C 36.266 165.907,36.514 167.302,36.656 169.006 C 36.798 170.711,37.039 172.106,37.192 172.106 C 37.345 172.106,37.587 173.500,37.729 175.205 C 37.871 176.910,38.110 178.304,38.260 178.304 C 38.410 178.304,38.750 180.438,39.015 183.045 C 39.281 185.652,39.617 187.785,39.761 187.785 C 39.905 187.785,40.139 189.180,40.281 190.884 C 40.423 192.589,40.668 193.984,40.824 193.984 C 40.981 193.984,41.227 195.337,41.371 196.992 C 41.515 198.646,41.762 200.164,41.920 200.365 C 42.078 200.565,42.414 202.698,42.666 205.105 C 42.919 207.511,43.263 209.569,43.431 209.678 C 43.599 209.787,43.848 211.961,43.984 214.510 C 44.120 217.058,44.349 219.143,44.493 219.143 C 44.638 219.143,44.867 220.128,45.003 221.331 C 45.139 222.534,45.392 223.519,45.565 223.519 C 45.738 223.519,45.990 224.175,46.126 224.977 C 46.261 225.779,46.501 226.436,46.657 226.436 C 46.814 226.436,47.149 227.174,47.402 228.077 C 47.655 228.979,48.004 229.717,48.179 229.717 C 48.353 229.717,48.496 229.969,48.496 230.276 C 48.496 230.583,48.742 230.929,49.043 231.044 C 49.344 231.160,49.590 231.449,49.590 231.688 C 49.590 232.211,50.455 233.399,52.051 235.067 C 52.703 235.748,53.236 236.429,53.236 236.579 C 53.236 236.730,54.399 237.996,55.821 239.393 C 57.243 240.790,58.910 242.466,59.526 243.118 C 60.142 243.769,60.866 244.303,61.134 244.303 C 61.403 244.303,61.623 244.469,61.623 244.672 C 61.623 245.036,63.218 246.881,65.542 249.207 C 66.194 249.859,66.727 250.581,66.727 250.812 C 66.727 251.042,66.895 251.231,67.100 251.231 C 67.305 251.231,67.670 251.682,67.913 252.233 C 68.155 252.785,68.561 253.367,68.816 253.528 C 69.071 253.688,69.280 254.057,69.280 254.348 C 69.280 254.639,69.444 254.877,69.644 254.877 C 69.845 254.877,70.009 255.128,70.009 255.435 C 70.009 255.742,70.237 256.081,70.515 256.188 C 70.794 256.295,71.222 257.100,71.468 257.976 C 71.713 258.853,72.142 259.658,72.420 259.765 C 72.698 259.871,72.926 260.196,72.926 260.487 C 72.926 260.777,73.049 261.070,73.200 261.136 C 73.621 261.324,75.114 263.549,75.114 263.989 C 75.114 264.204,75.360 264.475,75.661 264.590 C 75.962 264.706,76.208 265.003,76.208 265.251 C 76.208 265.500,76.536 266.000,76.937 266.363 C 77.338 266.726,77.666 267.226,77.666 267.474 C 77.666 267.722,77.912 268.020,78.213 268.136 C 78.514 268.251,78.760 268.597,78.760 268.904 C 78.760 269.211,78.891 269.462,79.052 269.462 C 79.522 269.462,80.219 271.764,80.219 273.317 C 80.219 275.514,79.363 282.224,79.083 282.224 C 78.946 282.224,78.719 283.373,78.578 284.777 C 78.437 286.180,78.174 287.329,77.994 287.329 C 77.814 287.329,77.661 287.780,77.655 288.332 C 77.647 289.038,77.107 289.873,75.828 291.158 C 74.830 292.160,73.922 293.268,73.810 293.619 C 73.698 293.970,73.453 294.257,73.266 294.257 C 73.079 294.257,72.926 294.483,72.926 294.759 C 72.926 295.036,72.681 295.465,72.381 295.714 C 72.081 295.963,71.645 296.804,71.412 297.582 C 71.178 298.360,70.857 298.997,70.697 298.997 C 70.537 298.997,70.299 299.572,70.167 300.273 C 70.036 300.975,69.782 301.550,69.604 301.550 C 69.426 301.550,69.279 301.837,69.278 302.188 C 69.276 302.539,69.043 303.271,68.759 303.815 C 68.476 304.359,68.044 306.041,67.800 307.552 C 67.556 309.064,67.230 310.301,67.075 310.301 C 66.920 310.301,66.675 311.737,66.531 313.491 C 66.386 315.246,66.084 316.799,65.860 316.942 C 65.288 317.306,65.280 349.596,65.851 349.968 C 66.070 350.111,66.348 350.846,66.467 351.602 C 66.721 353.211,69.104 355.880,70.286 355.880 C 70.702 355.880,71.097 356.037,71.164 356.230 C 71.231 356.422,72.639 356.692,74.294 356.829 C 75.948 356.966,77.302 357.196,77.302 357.339 C 77.302 357.482,79.845 357.815,82.954 358.079 C 86.062 358.343,88.605 358.675,88.605 358.816 C 88.605 358.958,90.697 359.194,93.254 359.340 C 95.811 359.487,97.986 359.737,98.086 359.897 C 98.187 360.056,100.566 360.307,103.373 360.453 C 106.181 360.600,108.560 360.839,108.660 360.986 C 108.760 361.132,111.550 361.434,114.859 361.656 C 118.168 361.879,122.844 362.213,125.251 362.400 C 127.657 362.586,133.236 362.859,137.648 363.007 C 142.060 363.154,145.752 363.396,145.852 363.545 C 146.732 364.851,253.234 364.804,253.722 363.498 C 253.789 363.319,255.184 363.174,256.822 363.175 C 262.281 363.180,278.021 362.386,278.760 362.068 C 279.161 361.895,282.156 361.644,285.415 361.510 C 288.674 361.376,291.340 361.138,291.340 360.981 C 291.340 360.824,293.719 360.577,296.627 360.431 C 299.535 360.286,301.914 360.044,301.914 359.893 C 301.914 359.743,303.883 359.502,306.290 359.359 C 308.696 359.215,310.665 358.977,310.665 358.831 C 310.665 358.684,313.373 358.351,316.682 358.089 C 319.991 357.828,322.698 357.494,322.698 357.346 C 322.698 357.199,324.046 356.966,325.694 356.829 C 327.342 356.691,328.778 356.444,328.885 356.278 C 328.992 356.113,329.490 355.851,329.991 355.696 C 330.796 355.447,331.472 354.837,332.984 352.999 C 333.215 352.718,333.478 351.569,333.569 350.446 C 333.660 349.323,333.918 348.288,334.141 348.145 C 334.719 347.776,334.717 319.132,334.140 318.765 C 333.915 318.622,333.612 316.905,333.468 314.950 C 333.323 312.995,333.056 311.395,332.874 311.395 C 332.692 311.395,332.543 311.062,332.543 310.656 C 332.543 309.375,331.659 305.196,331.389 305.196 C 331.246 305.196,331.019 304.458,330.883 303.555 C 330.748 302.653,330.510 301.914,330.355 301.914 C 330.199 301.914,329.964 301.340,329.833 300.638 C 329.701 299.936,329.450 299.362,329.274 299.362 C 329.099 299.362,328.850 298.883,328.721 298.298 C 328.593 297.713,328.169 296.867,327.781 296.419 C 327.392 295.971,327.074 295.383,327.074 295.113 C 327.074 294.843,326.910 294.622,326.709 294.622 C 326.509 294.622,326.345 294.384,326.345 294.093 C 326.345 293.802,326.139 293.433,325.889 293.272 C 325.179 292.818,322.334 289.250,322.334 288.813 C 322.334 288.599,322.186 288.423,322.006 288.423 C 321.826 288.423,321.563 287.274,321.422 285.871 C 321.281 284.467,321.041 283.318,320.888 283.318 C 320.735 283.318,320.394 281.267,320.131 278.760 C 319.869 276.253,319.518 274.202,319.353 274.202 C 319.187 274.202,319.052 273.710,319.052 273.108 C 319.052 272.507,319.183 272.015,319.343 272.015 C 319.504 272.015,319.855 271.405,320.124 270.661 C 320.394 269.916,320.837 269.084,321.109 268.811 C 321.382 268.539,321.604 268.099,321.604 267.834 C 321.604 267.569,321.851 267.258,322.151 267.143 C 322.452 267.027,322.698 266.699,322.698 266.413 C 322.698 266.128,322.944 265.799,323.245 265.684 C 323.546 265.569,323.792 265.248,323.792 264.972 C 323.792 264.696,324.120 264.173,324.521 263.810 C 324.923 263.447,325.251 262.947,325.251 262.699 C 325.251 262.451,325.497 262.153,325.798 262.038 C 326.098 261.922,326.345 261.577,326.345 261.269 C 326.345 260.962,326.506 260.711,326.702 260.711 C 326.899 260.711,327.163 260.301,327.289 259.799 C 327.415 259.298,327.651 258.888,327.814 258.888 C 327.978 258.888,328.311 258.282,328.556 257.541 C 328.800 256.800,329.144 256.021,329.320 255.809 C 329.496 255.597,329.965 255.030,330.362 254.548 C 330.760 254.066,331.085 253.450,331.085 253.180 C 331.085 252.910,331.254 252.689,331.461 252.689 C 331.668 252.689,331.967 252.338,332.126 251.909 C 332.508 250.876,333.334 249.973,341.477 241.686 C 345.287 237.808,348.897 233.897,349.498 232.996 C 350.099 232.095,350.675 231.276,350.778 231.176 C 351.155 230.808,352.963 226.958,352.963 226.522 C 352.963 226.274,353.112 226.071,353.295 226.071 C 353.478 226.071,353.744 225.374,353.887 224.521 C 354.029 223.669,354.293 222.878,354.473 222.763 C 354.654 222.648,354.903 221.459,355.028 220.120 C 355.154 218.780,355.371 217.685,355.511 217.685 C 355.652 217.685,355.873 215.603,356.002 213.060 C 356.130 210.516,356.378 208.342,356.551 208.228 C 356.724 208.115,357.083 205.930,357.348 203.373 C 357.614 200.816,357.951 198.724,358.099 198.724 C 358.246 198.724,358.483 197.329,358.625 195.624 C 358.767 193.920,359.008 192.525,359.161 192.525 C 359.314 192.525,359.556 191.130,359.698 189.426 C 359.840 187.721,360.079 186.326,360.229 186.326 C 360.379 186.326,360.719 184.193,360.985 181.586 C 361.250 178.979,361.586 176.846,361.730 176.846 C 361.874 176.846,362.108 175.451,362.250 173.747 C 362.392 172.042,362.640 170.647,362.802 170.647 C 362.963 170.647,363.212 169.170,363.355 167.366 C 363.497 165.561,363.744 164.084,363.902 164.084 C 364.061 164.084,364.308 162.730,364.451 161.076 C 364.594 159.421,364.844 157.903,365.006 157.702 C 365.168 157.501,365.507 155.326,365.760 152.870 C 366.013 150.414,366.340 148.405,366.487 148.405 C 366.633 148.405,366.869 147.010,367.011 145.305 C 367.153 143.601,367.395 142.206,367.548 142.206 C 367.701 142.206,367.942 140.811,368.084 139.107 C 368.226 137.402,368.465 136.007,368.615 136.007 C 368.765 136.007,369.105 133.874,369.371 131.267 C 369.637 128.660,369.972 126.527,370.116 126.527 C 370.261 126.527,370.495 125.132,370.637 123.428 C 370.779 121.723,371.027 120.328,371.188 120.328 C 371.349 120.328,371.598 118.851,371.741 117.046 C 371.884 115.242,372.126 113.765,372.280 113.765 C 372.433 113.765,372.670 112.633,372.806 111.250 C 373.076 108.509,373.278 108.311,375.822 108.300 C 376.462 108.298,377.077 108.147,377.189 107.965 C 377.302 107.783,378.214 107.522,379.216 107.384 C 380.219 107.246,381.039 106.984,381.039 106.803 C 381.039 106.621,381.310 106.472,381.641 106.472 C 382.406 106.472,386.144 104.593,386.144 104.208 C 386.144 104.050,386.395 103.920,386.702 103.920 C 387.010 103.920,387.355 103.674,387.471 103.373 C 387.586 103.072,387.891 102.826,388.149 102.826 C 388.660 102.826,392.811 98.818,393.984 97.193 C 394.385 96.637,394.918 95.966,395.169 95.701 C 395.419 95.437,395.624 95.040,395.624 94.819 C 395.624 94.597,395.871 94.322,396.171 94.207 C 396.472 94.091,396.718 93.807,396.718 93.575 C 396.718 93.342,397.025 92.581,397.399 91.882 C 397.773 91.183,398.204 90.036,398.356 89.335 C 398.509 88.633,398.759 87.976,398.914 87.876 C 400.172 87.059,400.150 70.009,398.890 70.009 C 398.734 70.009,398.489 69.319,398.347 68.476 C 398.081 66.904,396.931 64.368,396.095 63.511 C 395.836 63.246,395.624 62.812,395.624 62.547 C 395.624 62.282,395.378 61.971,395.077 61.855 C 394.777 61.740,394.531 61.474,394.531 61.264 C 394.531 60.751,388.682 54.884,387.876 54.587 C 387.525 54.458,387.238 54.184,387.238 53.977 C 387.238 53.770,387.017 53.601,386.747 53.601 C 386.477 53.601,385.881 53.276,385.424 52.879 C 384.966 52.482,384.002 52.047,383.280 51.912 C 382.559 51.776,381.748 51.445,381.478 51.175 C 381.208 50.905,380.589 50.684,380.102 50.684 C 379.615 50.684,379.216 50.530,379.216 50.341 C 379.216 50.153,378.067 49.885,376.664 49.747 C 375.260 49.609,374.111 49.353,374.111 49.178 C 374.111 49.003,372.552 48.861,370.647 48.861 C 368.742 48.861,367.183 49.001,367.183 49.172 C 367.183 49.344,366.008 49.583,364.571 49.703 C 363.135 49.823,361.863 50.070,361.745 50.250 C 361.628 50.431,360.916 50.692,360.164 50.830 C 359.412 50.968,358.797 51.220,358.797 51.389 C 358.797 51.558,358.214 51.806,357.501 51.939 C 356.789 52.073,356.119 52.409,356.012 52.687 C 355.906 52.964,355.340 53.297,354.755 53.425 C 354.170 53.554,353.692 53.815,353.692 54.006 C 353.692 54.197,353.405 54.463,353.054 54.598 C 352.372 54.859,350.296 56.622,349.346 57.747 C 349.029 58.122,348.236 58.959,347.584 59.607 C 346.933 60.255,346.399 60.956,346.399 61.165 C 346.399 61.374,346.169 61.633,345.887 61.741 C 345.605 61.849,345.264 62.441,345.128 63.056 C 344.993 63.672,344.769 64.175,344.630 64.175 C 344.288 64.175,343.198 66.310,342.908 67.548 C 342.779 68.099,342.538 68.551,342.371 68.551 C 342.205 68.551,341.956 69.330,341.818 70.283 C 341.680 71.235,341.428 72.190,341.259 72.404 C 340.748 73.050,340.480 80.601,340.884 82.954 C 341.663 87.480,342.106 89.335,342.408 89.335 C 342.580 89.335,342.828 89.909,342.959 90.611 C 343.091 91.313,343.332 91.887,343.494 91.887 C 343.656 91.887,343.897 92.379,344.029 92.981 C 344.161 93.582,344.425 94.075,344.614 94.075 C 344.804 94.075,345.116 94.489,345.309 94.996 C 345.683 95.980,345.993 96.397,347.612 98.097 C 348.179 98.693,348.478 99.180,348.275 99.180 C 348.073 99.180,347.792 99.541,347.652 99.983 C 347.512 100.425,347.213 100.993,346.989 101.247 C 346.188 102.151,345.845 102.659,345.305 103.737 C 345.005 104.339,344.594 105.031,344.394 105.274 C 344.193 105.518,343.844 105.941,343.618 106.214 C 343.392 106.487,343.094 107.067,342.955 107.503 C 342.817 107.939,342.551 108.295,342.364 108.295 C 342.177 108.295,342.024 108.470,342.024 108.684 C 342.024 108.898,341.613 109.611,341.112 110.268 C 340.611 110.926,340.201 111.653,340.201 111.885 C 340.201 112.117,340.036 112.306,339.836 112.306 C 339.635 112.306,339.471 112.541,339.471 112.827 C 339.471 113.114,339.266 113.565,339.015 113.830 C 338.274 114.612,336.554 117.364,336.554 117.768 C 336.554 117.973,336.390 118.140,336.190 118.140 C 335.989 118.140,335.825 118.392,335.825 118.699 C 335.825 119.006,335.579 119.352,335.278 119.467 C 334.977 119.582,334.731 119.894,334.731 120.159 C 334.731 120.424,334.526 120.864,334.275 121.137 C 333.815 121.637,333.162 122.695,332.320 124.303 C 332.068 124.784,331.728 125.276,331.565 125.397 C 331.245 125.632,331.012 125.994,329.204 129.079 C 328.557 130.182,327.896 131.139,327.733 131.206 C 327.571 131.273,327.438 131.565,327.438 131.856 C 327.438 132.146,327.207 132.473,326.924 132.581 C 326.642 132.690,326.310 133.177,326.188 133.664 C 326.066 134.150,325.818 134.549,325.637 134.549 C 325.455 134.549,325.118 135.123,324.886 135.825 C 324.654 136.527,324.314 137.101,324.129 137.101 C 323.944 137.101,323.792 137.339,323.792 137.630 C 323.792 137.921,323.587 138.290,323.336 138.450 C 322.787 138.802,322.096 139.845,321.511 141.203 C 321.274 141.755,320.972 142.206,320.839 142.206 C 320.707 142.206,320.395 142.698,320.146 143.300 C 319.897 143.902,319.549 144.394,319.372 144.394 C 319.196 144.394,319.052 144.645,319.052 144.952 C 319.052 145.259,318.816 145.601,318.527 145.712 C 318.239 145.823,317.898 146.392,317.769 146.977 C 317.641 147.562,317.376 148.040,317.181 148.040 C 316.986 148.040,316.655 148.532,316.445 149.134 C 316.235 149.736,315.916 150.228,315.735 150.228 C 315.554 150.228,315.406 150.479,315.406 150.786 C 315.406 151.093,315.170 151.435,314.881 151.546 C 314.592 151.657,314.251 152.226,314.123 152.811 C 313.994 153.396,313.733 153.874,313.542 153.874 C 313.351 153.874,313.088 154.161,312.958 154.512 C 312.701 155.201,311.367 157.221,310.968 157.524 C 310.833 157.626,310.613 158.148,310.479 158.683 C 310.345 159.218,310.004 159.744,309.721 159.853 C 309.438 159.961,309.207 160.284,309.207 160.569 C 309.207 160.855,308.961 161.183,308.660 161.299 C 308.359 161.414,308.113 161.735,308.113 162.011 C 308.113 162.288,307.785 162.892,307.384 163.355 C 306.983 163.817,306.655 164.416,306.655 164.687 C 306.655 164.957,306.494 165.178,306.297 165.178 C 306.100 165.178,305.836 165.588,305.710 166.089 C 305.585 166.591,305.344 167.001,305.176 167.001 C 304.892 167.001,304.470 167.657,303.302 169.918 C 302.812 170.867,302.739 170.974,301.562 172.470 C 300.848 173.378,300.845 173.168,300.833 124.066 C 300.820 74.988,300.824 74.749,301.550 74.749 C 301.951 74.749,302.279 74.603,302.279 74.425 C 302.279 74.247,302.853 73.993,303.555 73.862 C 304.257 73.730,304.831 73.487,304.831 73.322 C 304.831 73.156,305.570 72.814,306.472 72.562 C 307.375 72.309,308.113 71.959,308.113 71.785 C 308.113 71.610,308.364 71.468,308.671 71.468 C 308.979 71.468,309.324 71.222,309.440 70.921 C 309.555 70.620,309.845 70.374,310.083 70.374 C 310.866 70.374,316.500 65.379,316.500 64.685 C 316.500 64.494,316.828 64.056,317.229 63.713 C 317.630 63.369,317.958 62.841,317.958 62.538 C 317.958 62.235,318.122 61.987,318.323 61.987 C 318.523 61.987,318.687 61.808,318.687 61.589 C 318.687 61.370,319.011 60.779,319.407 60.276 C 319.803 59.773,320.231 58.803,320.359 58.122 C 320.487 57.440,320.723 56.882,320.884 56.882 C 321.044 56.882,321.292 56.185,321.435 55.333 C 321.577 54.480,321.879 53.666,322.105 53.523 C 322.691 53.152,322.680 38.361,322.094 37.999 C 321.861 37.855,321.556 37.123,321.415 36.371 C 321.274 35.619,321.034 35.005,320.882 35.005 C 320.730 35.005,320.399 34.266,320.146 33.364 C 319.893 32.461,319.557 31.723,319.398 31.723 C 319.240 31.723,319.002 31.231,318.870 30.629 C 318.738 30.027,318.473 29.535,318.282 29.535 C 318.091 29.535,317.830 29.248,317.702 28.897 C 317.574 28.546,317.004 27.806,316.437 27.253 C 315.870 26.700,315.406 26.117,315.406 25.957 C 315.406 25.512,313.056 23.336,312.575 23.336 C 312.341 23.336,311.974 23.008,311.759 22.607 C 311.545 22.206,311.129 21.878,310.835 21.878 C 310.541 21.878,310.301 21.717,310.301 21.520 C 310.301 21.323,309.902 21.063,309.416 20.940 C 308.929 20.818,308.442 20.487,308.333 20.204 C 308.225 19.921,307.885 19.690,307.578 19.690 C 307.270 19.690,307.019 19.541,307.019 19.359 C 307.019 19.177,306.199 18.818,305.196 18.561 C 304.193 18.304,303.373 17.971,303.373 17.820 C 303.373 17.670,302.593 17.432,301.641 17.292 C 300.688 17.151,299.797 16.863,299.660 16.650 C 299.312 16.109,287.021 16.097,286.674 16.637 C 286.533 16.857,285.638 17.151,284.686 17.292 C 283.733 17.432,282.954 17.670,282.954 17.820 C 282.954 17.971,282.133 18.304,281.130 18.561 C 280.128 18.818,279.307 19.141,279.307 19.279 C 279.307 19.417,278.856 19.724,278.304 19.962 C 276.971 20.535,276.057 21.159,275.096 22.151 C 274.659 22.603,274.141 22.972,273.946 22.972 C 273.751 22.972,272.662 23.997,271.526 25.251 C 270.390 26.504,269.215 27.790,268.914 28.107 C 268.614 28.425,268.368 28.876,268.368 29.110 C 268.368 29.344,268.237 29.535,268.077 29.535 C 267.917 29.535,267.578 30.109,267.324 30.811 C 267.070 31.513,266.711 32.088,266.526 32.088 C 266.341 32.088,266.084 32.744,265.956 33.546 C 265.828 34.348,265.587 35.005,265.421 35.005 C 265.255 35.005,265.006 35.620,264.868 36.372 C 264.730 37.124,264.435 37.856,264.214 38.000 C 263.637 38.372,263.656 53.302,264.234 54.001 C 264.466 54.282,264.772 55.128,264.912 55.880 C 265.053 56.632,265.301 57.247,265.463 57.247 C 265.625 57.247,265.866 57.739,265.998 58.341 C 266.130 58.943,266.376 59.435,266.545 59.435 C 266.714 59.435,266.962 59.938,267.097 60.553 C 267.233 61.169,267.574 61.760,267.856 61.869 C 268.138 61.977,268.368 62.260,268.368 62.499 C 268.368 63.441,273.875 69.280,274.764 69.280 C 275.057 69.280,275.296 69.526,275.296 69.827 C 275.296 70.128,275.132 70.374,274.932 70.374 C 274.731 70.374,274.567 70.747,274.567 71.204 C 274.567 71.661,274.342 72.358,274.067 72.754 C 273.791 73.149,273.450 74.006,273.308 74.658 C 273.167 75.310,272.920 75.843,272.760 75.843 C 272.601 75.843,272.372 76.335,272.252 76.937 C 272.131 77.539,271.701 78.760,271.294 79.652 C 270.888 80.543,270.556 81.528,270.556 81.840 C 270.556 82.151,270.405 82.407,270.220 82.407 C 270.036 82.407,269.777 82.899,269.644 83.500 C 269.512 84.102,269.253 84.594,269.069 84.594 C 268.884 84.594,268.733 84.857,268.733 85.177 C 268.733 85.498,268.510 86.277,268.237 86.909 C 267.139 89.455,266.910 90.129,266.910 90.810 C 266.910 91.202,266.753 91.522,266.562 91.522 C 266.370 91.522,266.106 92.097,265.974 92.799 C 265.842 93.500,265.596 94.075,265.427 94.075 C 265.258 94.075,265.012 94.649,264.880 95.351 C 264.749 96.053,264.510 96.627,264.350 96.627 C 264.191 96.627,263.850 97.448,263.593 98.450 C 263.336 99.453,263.000 100.273,262.846 100.273 C 262.693 100.273,262.459 100.848,262.328 101.550 C 262.196 102.252,261.950 102.826,261.781 102.826 C 261.612 102.826,261.359 103.437,261.219 104.184 C 261.078 104.931,260.743 105.763,260.473 106.033 C 260.203 106.303,259.982 106.923,259.982 107.410 C 259.982 107.897,259.834 108.295,259.654 108.295 C 259.473 108.295,259.128 109.116,258.888 110.119 C 258.647 111.121,258.321 111.942,258.163 111.942 C 258.005 111.942,257.767 112.516,257.636 113.218 C 257.504 113.920,257.247 114.494,257.065 114.494 C 256.882 114.494,256.625 115.068,256.494 115.770 C 256.362 116.472,256.125 117.046,255.967 117.046 C 255.808 117.046,255.482 117.867,255.242 118.870 C 255.001 119.872,254.656 120.693,254.476 120.693 C 254.295 120.693,254.148 121.091,254.148 121.578 C 254.148 122.065,253.927 122.685,253.657 122.955 C 253.387 123.225,253.051 124.057,252.911 124.804 C 252.771 125.551,252.499 126.162,252.308 126.162 C 252.117 126.162,251.960 126.456,251.960 126.814 C 251.960 127.173,251.641 128.092,251.252 128.856 C 250.862 129.619,250.439 130.721,250.311 131.303 C 250.183 131.885,249.946 132.361,249.784 132.361 C 249.621 132.361,249.381 132.935,249.249 133.637 C 249.118 134.339,248.853 134.913,248.662 134.913 C 248.470 134.913,248.314 135.169,248.314 135.480 C 248.314 135.792,247.981 136.777,247.575 137.668 C 247.169 138.560,246.733 139.822,246.606 140.474 C 246.479 141.126,246.278 141.741,246.160 141.841 C 245.784 142.158,244.702 144.535,244.458 145.579 C 244.329 146.130,244.103 146.582,243.957 146.582 C 243.810 146.582,243.473 147.484,243.209 148.587 C 242.944 149.690,242.597 150.593,242.438 150.593 C 242.278 150.593,242.040 151.167,241.908 151.869 C 241.777 152.571,241.536 153.145,241.374 153.145 C 241.212 153.145,240.965 153.678,240.826 154.330 C 240.686 154.982,240.443 155.679,240.286 155.880 C 239.776 156.530,238.104 160.908,238.104 161.594 C 238.104 161.961,237.947 162.261,237.756 162.261 C 237.564 162.261,237.300 162.835,237.168 163.537 C 237.037 164.239,236.790 164.813,236.621 164.813 C 236.452 164.813,236.206 165.387,236.074 166.089 C 235.614 168.545,235.070 167.559,234.615 163.446 C 234.477 162.192,234.237 161.167,234.083 161.167 C 233.929 161.167,233.687 160.018,233.546 158.613 C 233.405 157.208,233.159 155.978,232.999 155.880 C 232.839 155.781,232.593 154.551,232.452 153.146 C 232.311 151.742,232.065 150.593,231.905 150.593 C 231.745 150.593,231.499 149.444,231.358 148.040 C 231.217 146.636,230.976 145.488,230.823 145.488 C 230.670 145.488,230.336 143.683,230.082 141.477 C 229.828 139.271,229.495 137.466,229.341 137.466 C 229.188 137.466,228.947 136.317,228.806 134.913 C 228.665 133.510,228.421 132.361,228.264 132.361 C 228.108 132.361,227.862 131.253,227.719 129.900 C 227.575 128.546,227.330 127.274,227.174 127.074 C 227.017 126.873,226.679 125.027,226.421 122.972 C 226.164 120.916,225.832 119.234,225.685 119.234 C 225.537 119.234,225.301 118.086,225.160 116.682 C 225.019 115.278,224.775 114.129,224.618 114.129 C 224.462 114.129,224.218 112.899,224.077 111.395 C 223.936 109.891,223.698 108.660,223.547 108.660 C 223.396 108.660,223.063 107.017,222.807 105.009 C 222.551 103.002,222.216 101.281,222.062 101.186 C 221.908 101.091,221.667 99.780,221.525 98.273 C 221.384 96.766,221.135 95.533,220.972 95.533 C 220.809 95.533,220.560 94.385,220.419 92.981 C 220.278 91.577,220.032 90.428,219.872 90.428 C 219.713 90.428,219.466 89.280,219.325 87.876 C 219.184 86.472,218.951 85.324,218.806 85.324 C 218.661 85.324,218.328 83.519,218.066 81.313 C 217.803 79.107,217.463 77.302,217.309 77.302 C 217.155 77.302,216.914 76.153,216.773 74.749 C 216.632 73.345,216.389 72.197,216.232 72.197 C 216.075 72.197,215.832 70.966,215.691 69.462 C 215.550 67.958,215.311 66.727,215.160 66.727 C 215.009 66.727,214.673 65.046,214.413 62.990 C 214.153 60.934,213.815 59.170,213.660 59.070 C 212.685 58.436,213.154 55.990,214.314 55.658 C 214.965 55.471,215.497 55.178,215.497 55.007 C 215.497 54.835,215.748 54.695,216.055 54.695 C 216.362 54.695,216.708 54.448,216.823 54.148 C 216.939 53.847,217.225 53.601,217.460 53.601 C 217.695 53.601,218.142 53.314,218.454 52.963 C 218.765 52.612,219.581 51.821,220.267 51.205 C 221.322 50.256,222.334 49.141,224.610 46.415 C 224.812 46.172,224.977 45.823,224.977 45.639 C 224.977 45.454,225.223 45.100,225.522 44.851 C 225.822 44.602,226.259 43.762,226.492 42.983 C 226.725 42.205,227.039 41.568,227.191 41.568 C 227.342 41.568,227.576 40.912,227.712 40.109 C 227.847 39.307,228.100 38.651,228.273 38.651 C 228.446 38.651,228.699 37.666,228.835 36.463 C 228.971 35.260,229.225 34.275,229.400 34.275 C 229.575 34.275,229.717 32.142,229.717 29.535 C 229.717 26.928,229.572 24.795,229.395 24.795 C 229.218 24.795,228.959 23.728,228.819 22.425 C 228.680 21.121,228.433 20.055,228.270 20.055 C 228.108 20.055,227.868 19.480,227.736 18.778 C 227.604 18.077,227.358 17.502,227.189 17.502 C 227.020 17.502,226.772 16.919,226.639 16.207 C 226.505 15.494,226.173 14.826,225.902 14.722 C 225.630 14.618,225.299 14.101,225.167 13.575 C 225.035 13.048,224.528 12.247,224.040 11.795 C 223.553 11.343,223.154 10.838,223.154 10.672 C 223.154 10.244,219.153 6.199,218.730 6.199 C 218.537 6.199,218.009 5.800,217.558 5.312 C 217.106 4.825,216.293 4.315,215.752 4.179 C 215.210 4.043,214.768 3.790,214.768 3.616 C 214.768 3.225,211.874 1.882,210.392 1.586 C 209.790 1.466,209.298 1.249,209.298 1.104 C 209.298 0.183,197.785 -0.268,192.799 0.457 M202.399 15.138 C 219.580 18.752,217.321 44.097,199.818 44.113 C 182.727 44.129,180.084 19.556,196.718 15.293 C 199.908 14.475,199.324 14.491,202.399 15.138 M112.864 27.325 C 124.839 33.221,123.324 50.676,110.508 54.473 C 100.636 57.397,90.497 48.359,92.247 38.195 C 93.912 28.530,104.245 23.082,112.864 27.325 M297.741 32.091 C 310.260 36.324,311.100 53.531,299.063 59.182 C 293.633 61.731,286.512 60.278,282.486 55.800 C 272.472 44.662,283.631 27.320,297.741 32.091 M31.929 64.571 C 39.795 66.012,44.956 73.493,43.569 81.445 C 41.346 94.190,24.343 97.729,17.194 86.935 C 10.118 76.252,19.335 62.264,31.929 64.571 M373.612 64.659 C 382.732 66.571,387.694 76.937,383.493 85.301 C 379.089 94.069,367.086 96.120,360.282 89.267 C 349.956 78.867,359.280 61.655,373.612 64.659 M200.755 72.388 C 201.831 77.678,202.295 80.004,202.860 82.954 C 203.168 84.558,203.764 87.511,204.184 89.517 C 204.605 91.522,205.189 94.394,205.483 95.898 C 205.776 97.402,206.118 99.125,206.242 99.727 C 206.366 100.328,207.205 104.512,208.106 109.025 C 209.007 113.537,209.827 117.639,209.929 118.140 C 210.253 119.735,213.374 135.365,213.860 137.830 C 214.118 139.134,214.522 141.185,214.758 142.388 C 214.995 143.592,215.851 147.858,216.661 151.869 C 217.471 155.880,218.349 160.310,218.613 161.714 C 218.877 163.118,220.329 170.411,221.840 177.922 C 223.351 185.433,224.552 191.614,224.507 191.658 C 224.182 191.984,175.018 191.962,175.125 191.636 C 175.195 191.423,180.739 163.734,187.444 130.105 C 194.149 96.475,199.754 69.077,199.899 69.220 C 200.044 69.363,200.429 70.788,200.755 72.388 M114.798 82.315 C 115.013 82.867,116.412 86.436,117.906 90.246 C 119.400 94.057,121.228 98.733,121.968 100.638 C 122.708 102.543,124.350 106.727,125.617 109.936 C 126.884 113.145,128.819 118.067,129.918 120.875 C 131.017 123.683,132.526 127.539,133.272 129.444 C 134.017 131.349,135.825 135.943,137.288 139.654 C 138.751 143.364,140.554 147.958,141.296 149.863 C 143.747 156.165,146.597 163.442,149.506 170.830 C 159.336 195.790,158.462 192.886,156.153 192.902 C 152.729 192.925,128.199 194.530,123.063 195.067 C 121.258 195.255,118.428 195.516,116.773 195.646 L 113.765 195.883 113.765 138.598 C 113.765 105.924,113.902 81.313,114.085 81.313 C 114.261 81.313,114.582 81.764,114.798 82.315 M285.719 194.622 C 285.634 194.707,281.818 194.510,277.240 194.184 C 268.264 193.544,258.813 193.022,248.678 192.605 L 242.297 192.343 242.392 191.479 C 242.444 191.004,242.723 190.102,243.012 189.474 C 243.508 188.397,244.770 185.309,248.544 175.934 C 249.432 173.728,250.311 171.595,250.496 171.194 C 250.810 170.514,254.299 161.893,258.022 152.598 C 258.905 150.392,259.785 148.259,259.976 147.858 C 260.168 147.457,261.238 144.831,262.355 142.024 C 263.472 139.216,264.539 136.591,264.725 136.190 C 265.072 135.443,267.199 130.206,270.057 123.063 C 270.939 120.857,271.818 118.724,272.009 118.323 C 272.200 117.922,273.115 115.706,274.042 113.400 C 277.053 105.910,285.282 85.663,285.596 84.974 C 285.645 84.866,285.728 109.457,285.779 139.622 C 285.831 169.787,285.803 194.537,285.719 194.622 M46.123 119.234 C 47.077 120.738,48.228 122.543,48.681 123.245 C 50.293 125.747,52.915 129.873,64.906 148.769 C 78.082 169.534,79.879 172.360,81.134 174.294 C 81.590 174.995,84.300 179.262,87.157 183.774 C 90.014 188.286,93.064 193.075,93.934 194.416 C 96.108 197.763,96.107 197.774,93.528 198.026 C 90.829 198.290,85.267 198.985,81.860 199.484 C 80.456 199.689,77.502 200.101,75.296 200.398 C 73.090 200.696,69.727 201.181,67.821 201.476 C 62.005 202.375,57.990 202.870,57.831 202.707 C 57.748 202.622,54.462 183.191,50.529 159.526 C 46.596 135.861,43.286 116.092,43.174 115.594 L 42.970 114.688 43.679 115.594 C 44.069 116.092,45.169 117.730,46.123 119.234 M356.609 115.549 C 356.609 115.728,356.380 117.082,356.100 118.557 C 355.820 120.033,355.330 122.799,355.010 124.704 C 353.389 134.360,351.034 148.578,350.601 151.322 C 348.466 164.844,342.297 201.252,342.034 201.881 C 341.733 202.601,341.572 202.637,340.133 202.309 C 339.267 202.111,337.329 201.725,335.825 201.450 C 334.321 201.175,331.285 200.619,329.079 200.215 C 326.873 199.811,322.033 199.061,318.323 198.548 C 314.613 198.035,310.579 197.455,309.359 197.258 C 308.140 197.062,306.622 196.901,305.987 196.901 C 304.149 196.901,304.165 196.867,310.843 186.509 C 311.490 185.506,316.084 178.286,321.052 170.465 C 332.151 152.993,330.307 155.890,341.816 137.830 C 347.119 129.508,352.494 121.020,353.760 118.969 C 355.863 115.561,356.609 114.666,356.609 115.549 M229.535 207.132 C 262.285 208.114,294.308 210.871,324.521 215.310 C 329.435 216.031,334.521 216.778,335.825 216.969 C 340.434 217.643,340.345 217.538,338.968 220.651 C 337.731 223.446,335.726 225.841,329.239 232.270 C 323.607 237.852,320.269 241.726,318.139 245.153 C 316.884 247.173,317.614 247.116,309.754 245.799 C 296.297 243.544,278.455 242.142,243.391 240.586 C 229.138 239.954,170.573 239.955,156.244 240.588 C 120.371 242.173,103.954 243.493,88.812 246.009 L 83.003 246.974 82.431 246.163 C 79.267 241.673,75.361 237.147,69.497 231.176 C 61.305 222.835,58.180 218.033,60.615 217.530 C 61.943 217.256,68.241 216.297,75.114 215.324 C 78.624 214.826,82.644 214.248,84.047 214.040 C 91.999 212.857,115.211 210.394,126.892 209.493 C 147.476 207.905,158.462 207.398,189.426 206.605 C 195.593 206.447,215.332 206.706,229.535 207.132 M241.203 255.254 C 266.151 256.015,291.282 257.838,304.275 259.830 C 308.547 260.485,308.387 260.392,307.473 261.693 C 304.313 266.190,303.481 271.854,304.831 279.672 C 305.736 284.908,305.742 285.246,304.923 284.993 C 303.745 284.629,285.124 282.477,276.208 281.675 C 235.862 278.043,177.133 277.575,137.101 280.564 C 127.768 281.261,117.143 282.177,115.770 282.403 C 115.169 282.502,112.461 282.824,109.754 283.119 C 107.046 283.415,102.780 283.912,100.273 284.225 C 97.767 284.539,95.387 284.832,94.986 284.877 C 94.122 284.974,94.122 285.004,94.937 279.386 C 96.031 271.839,95.549 267.755,93.008 263.044 L 91.609 260.452 95.303 259.854 C 99.789 259.129,104.044 258.664,117.593 257.422 C 144.520 254.954,199.636 253.987,241.203 255.254 M228.624 293.533 C 258.076 294.478,292.653 297.485,310.766 300.676 C 314.152 301.273,317.175 308.164,318.747 318.870 C 319.482 323.879,319.911 341.651,319.311 342.251 C 318.324 343.238,281.331 346.859,259.982 348.059 C 237.487 349.323,231.323 349.467,199.818 349.467 C 168.312 349.467,162.148 349.323,139.654 348.059 C 118.110 346.848,81.688 343.254,80.678 342.238 C 80.073 341.629,80.399 321.973,81.082 317.958 C 82.152 311.664,83.120 308.415,85.080 304.546 C 86.938 300.879,86.720 300.971,96.809 299.572 C 114.734 297.086,121.787 296.387,146.764 294.623 C 151.488 294.290,166.544 293.635,174.658 293.410 C 184.614 293.135,218.611 293.212,228.624 293.533 " stroke="none" fill="#040404" fill-rule="evenodd"></path></g></svg>